<mxfile host="Electron" modified="2024-01-01T00:57:47.509Z" agent="Mozilla/5.0 (X11; Linux x86_64) AppleWebKit/537.36 (KHTML, like Gecko) draw.io/22.1.16 Chrome/120.0.6099.109 Electron/28.1.0 Safari/537.36" etag="pB0pW4Pf90YnWr7vW5_1" version="22.1.16" type="device">
  <diagram name="Page-1" id="mkHK0wW7ZeUWsptHOZcX">
    <mxGraphModel dx="1114" dy="848" grid="1" gridSize="10" guides="1" tooltips="1" connect="1" arrows="1" fold="1" page="1" pageScale="1" pageWidth="850" pageHeight="1100" math="0" shadow="0">
      <root>
        <mxCell id="0" />
        <mxCell id="1" parent="0" />
        <mxCell id="K100ILrr0IqUAewiloMb-1" value="&lt;div style=&quot;font-size: 20px;&quot;&gt;机器人内核&lt;/div&gt;" style="rounded=1;whiteSpace=wrap;html=1;align=left;verticalAlign=top;spacingLeft=10;spacingTop=10;fontSize=20;fontStyle=1;arcSize=11;" parent="1" vertex="1">
          <mxGeometry x="80" y="120" width="360" height="360" as="geometry" />
        </mxCell>
        <mxCell id="K100ILrr0IqUAewiloMb-2" value="在GitHub上的模块" style="whiteSpace=wrap;html=1;aspect=fixed;align=left;verticalAlign=top;spacingLeft=10;spacingTop=10;fontSize=17;fontStyle=1" parent="1" vertex="1">
          <mxGeometry x="560" y="40" width="240" height="240" as="geometry" />
        </mxCell>
        <mxCell id="K100ILrr0IqUAewiloMb-3" value="加载/卸载GitHub模块" style="rounded=0;whiteSpace=wrap;html=1;fontSize=15;" parent="1" vertex="1">
          <mxGeometry x="100" y="180" width="320" height="30" as="geometry" />
        </mxCell>
        <mxCell id="K100ILrr0IqUAewiloMb-4" value="列举已加载的模块" style="rounded=0;whiteSpace=wrap;html=1;fontSize=15;" parent="1" vertex="1">
          <mxGeometry x="100" y="220" width="320" height="30" as="geometry" />
        </mxCell>
        <mxCell id="K100ILrr0IqUAewiloMb-5" value="审核&amp;amp;更新已加载的模块" style="rounded=0;whiteSpace=wrap;html=1;fontSize=15;" parent="1" vertex="1">
          <mxGeometry x="100" y="300" width="320" height="30" as="geometry" />
        </mxCell>
        <mxCell id="K100ILrr0IqUAewiloMb-6" value="下载正在运行的源代码" style="rounded=0;whiteSpace=wrap;html=1;fontSize=15;" parent="1" vertex="1">
          <mxGeometry x="100" y="260" width="320" height="30" as="geometry" />
        </mxCell>
        <mxCell id="K100ILrr0IqUAewiloMb-7" value="投票以加载/卸载模块" style="rounded=0;whiteSpace=wrap;html=1;fontSize=15;" parent="1" vertex="1">
          <mxGeometry x="100" y="340" width="320" height="30" as="geometry" />
        </mxCell>
        <mxCell id="K100ILrr0IqUAewiloMb-8" value="" style="rounded=0;whiteSpace=wrap;html=1;fontSize=15;" parent="1" vertex="1">
          <mxGeometry x="100" y="420" width="320" height="30" as="geometry" />
        </mxCell>
        <mxCell id="K100ILrr0IqUAewiloMb-9" value="" style="rounded=0;whiteSpace=wrap;html=1;fontSize=15;" parent="1" vertex="1">
          <mxGeometry x="100" y="380" width="320" height="30" as="geometry" />
        </mxCell>
        <mxCell id="K100ILrr0IqUAewiloMb-10" value="来自给定的模板" style="rounded=0;whiteSpace=wrap;html=1;fontSize=15;" parent="1" vertex="1">
          <mxGeometry x="580" y="80" width="200" height="30" as="geometry" />
        </mxCell>
        <mxCell id="K100ILrr0IqUAewiloMb-11" value="必须提供改变文档" style="rounded=0;whiteSpace=wrap;html=1;fontSize=15;" parent="1" vertex="1">
          <mxGeometry x="580" y="120" width="200" height="30" as="geometry" />
        </mxCell>
        <mxCell id="K100ILrr0IqUAewiloMb-12" value="Python模块需求文件" style="rounded=0;whiteSpace=wrap;html=1;fontSize=15;" parent="1" vertex="1">
          <mxGeometry x="580" y="200" width="200" height="30" as="geometry" />
        </mxCell>
        <mxCell id="K100ILrr0IqUAewiloMb-13" value="无本地系统存储权限" style="rounded=0;whiteSpace=wrap;html=1;fontSize=15;" parent="1" vertex="1">
          <mxGeometry x="580" y="160" width="200" height="30" as="geometry" />
        </mxCell>
        <mxCell id="K100ILrr0IqUAewiloMb-14" value="" style="rounded=0;whiteSpace=wrap;html=1;fontSize=15;" parent="1" vertex="1">
          <mxGeometry x="580" y="240" width="200" height="30" as="geometry" />
        </mxCell>
        <mxCell id="K100ILrr0IqUAewiloMb-15" value="/load https://github.com/retr0-init/example_module.mod.git" style="rounded=0;whiteSpace=wrap;html=1;align=left;spacingLeft=10;" parent="1" vertex="1">
          <mxGeometry x="40" y="560" width="400" height="20" as="geometry" />
        </mxCell>
        <mxCell id="K100ILrr0IqUAewiloMb-19" value="" style="edgeStyle=orthogonalEdgeStyle;rounded=0;orthogonalLoop=1;jettySize=auto;html=1;" parent="1" source="K100ILrr0IqUAewiloMb-16" target="K100ILrr0IqUAewiloMb-17" edge="1">
          <mxGeometry relative="1" as="geometry" />
        </mxCell>
        <mxCell id="K100ILrr0IqUAewiloMb-16" value="/list installed_module" style="rounded=0;whiteSpace=wrap;html=1;align=left;spacingLeft=10;" parent="1" vertex="1">
          <mxGeometry x="40" y="580" width="400" height="20" as="geometry" />
        </mxCell>
        <mxCell id="K100ILrr0IqUAewiloMb-17" value="- github__retr0_h_init_s_example_u_module_d_mod" style="rounded=0;whiteSpace=wrap;html=1;align=left;spacingLeft=10;" parent="1" vertex="1">
          <mxGeometry x="480" y="580" width="300" height="20" as="geometry" />
        </mxCell>
        <mxCell id="K100ILrr0IqUAewiloMb-18" value="/unload github__retr0_h_init_s_example_u_module_d_mod" style="rounded=0;whiteSpace=wrap;html=1;align=left;spacingLeft=10;" parent="1" vertex="1">
          <mxGeometry x="40" y="600" width="400" height="20" as="geometry" />
        </mxCell>
        <mxCell id="K100ILrr0IqUAewiloMb-20" value="/download [full][core]" style="rounded=0;whiteSpace=wrap;html=1;align=left;spacingLeft=10;" parent="1" vertex="1">
          <mxGeometry x="40" y="620" width="400" height="20" as="geometry" />
        </mxCell>
        <mxCell id="TuBQrjZSOpLfp8WCdEAR-1" value="" style="curved=1;endArrow=classic;html=1;rounded=0;entryX=1;entryY=0.5;entryDx=0;entryDy=0;exitX=0;exitY=0.5;exitDx=0;exitDy=0;" parent="1" source="K100ILrr0IqUAewiloMb-2" target="K100ILrr0IqUAewiloMb-1" edge="1">
          <mxGeometry width="50" height="50" relative="1" as="geometry">
            <mxPoint x="580" y="300" as="sourcePoint" />
            <mxPoint x="520" y="190" as="targetPoint" />
            <Array as="points">
              <mxPoint x="520" y="160" />
              <mxPoint x="480" y="300" />
            </Array>
          </mxGeometry>
        </mxCell>
      </root>
    </mxGraphModel>
  </diagram>
</mxfile>
